#N canvas 67 333 849 325 10;
#X obj 120 287 s pd;
#X msg 94 230 audio-dialog 1 0 0 0 2 0 0 0 1 0 0 0 2 0 0 0 44100 5
0 64;
#X msg 160 257 midi-dialog 3 0 0 0 0 0 0 0 0 0 0 0 0 0 0 0 0 0 4 4
;
#X obj 99 108 bng 15 250 50 0 studio_setup empty RME_audio_&_Teensy_MIDI
17 7 0 10 -262144 -1 -1;
#X obj 166 54 inlet;
#X obj 298 109 bng 15 250 50 0 empty empty RME_audio_&_2_Teensy_MIDI
17 7 0 10 -262144 -1 -1;
#X obj 564 281 s pd;
#X msg 538 224 audio-dialog 1 0 0 0 2 0 0 0 1 0 0 0 2 0 0 0 44100 5
0 64;
#X msg 604 251 midi-dialog 3 4 0 0 0 0 0 0 0 0 0 0 0 0 0 0 0 0 5 5
;
#X obj 300 56 inlet;
#X msg 652 80 audio-dialog 3 0 0 0 2 0 0 0 3 0 0 0 2 0 0 0 44100 5
0 64;
#X msg 650 109 midi-dialog 2 3 0 0 0 0 0 0 0 0 0 0 0 0 0 0 0 0 6 6
;
#X obj 639 146 s pd;
#X obj 472 30 inlet;
#X obj 462 69 bng 15 250 50 0 empty empty RME_firewire_&_2_Teensy_MIDI
17 7 0 10 -262144 -1 -1;
#X msg 49 56 \; pd dsp 1;
#X obj 49 30 bng 15 250 50 0 empty empty empty 17 7 0 10 -262144 -1
-1;
#X connect 1 0 0 0;
#X connect 2 0 0 0;
#X connect 3 0 1 0;
#X connect 3 0 2 0;
#X connect 4 0 3 0;
#X connect 5 0 7 0;
#X connect 5 0 8 0;
#X connect 7 0 6 0;
#X connect 8 0 6 0;
#X connect 9 0 5 0;
#X connect 10 0 12 0;
#X connect 11 0 12 0;
#X connect 13 0 14 0;
#X connect 14 0 10 0;
#X connect 14 0 11 0;
#X connect 16 0 15 0;
#X coords 0 325 1 324 120 60 0;
